<svg id="Layer_1" data-name="Layer 1" xmlns="http://www.w3.org/2000/svg" viewBox="0 0 432 615"><defs><style>.cls-1{fill:none;stroke:#007bff;stroke-miterlimit:10;stroke-width:2px;}.cls-2{fill:#007bff;}</style></defs><title>Vehicle Seat Arrangement</title><path class="cls-1" d="M588.86,653H573V328h15.86c5.58,0,9.14-5,9.14-10.8v-70c0-5.79-3.56-9.16-9.14-9.16H573V207.48c0-6.84-5.06-12.48-11.66-12.48H206.66A12.86,12.86,0,0,0,194,207.48V238H179.14c-5.58,0-11.14,3.38-11.14,9.16v70c0,5.79,5.56,10.8,11.14,10.8H194V653H179.14c-5.58,0-11.14,4.57-11.14,10.36v70c0,5.79,5.56,11.6,11.14,11.6H194v49.6c0,6.84,6.06,13.4,12.66,13.4H561.34c6.6,0,11.66-6.55,11.66-13.4V745h15.86c5.58,0,9.14-5.82,9.14-11.6v-70C598,657.57,594.44,653,588.86,653Z" transform="translate(-167 -194)"/><path class="cls-2" d="M342.37,225.91l0,0.51,0,0.48,0,0.35-0.1.22-0.19.16-0.35.1H341l-1-.13-0.51,0h-2.08l-3.65.13-1.44-.1h-0.7l-0.32.1-0.13.22,0,0.45-0.06,2.85,0,0.35,0,0.19,0.16,0.13,0.38,0.1h0.83l1.09-.1,0.51,0,1.92,0.06h2.43l0.48,0,1.22-.1H341l0.35,0.06,0.19,0.16,0.13,0.26,0.06,0.38,0,0.26,0,0.48-0.06,1v0.48l0,0.74,0,0.48,0,0.51-0.06.38-0.1.26-0.16.13-0.38.1h-0.77l-1.18-.16-0.51,0-1.92.06H336.1l-3.46-.06-0.48,0-0.45.06-0.32.1-0.13.19V238l0,1.82v0.51l-0.13,1.79v0.51l0,0.7,0,0.51,0,0.54,0,0.38-0.1.19-0.19.1-0.35.06-0.54.06-0.51,0-1.18,0h-0.51l-1.31.1-1-.06-0.35-.06-0.19-.13-0.06-.22,0-.35-0.1-1.7,0-.51,0-1.7,0-.51,0.13-1.7,0-.51-0.1-1.7v-0.51l-0.1-1.73v-0.51l0.06-1.7V229l0.06-1.7V224.6l0.06-1.7,0-.38,0.06-.22,0.19-.1,0.32-.06h0.7l1.22,0.1h0.51l1.89-.1h0.51l1.86,0.1h0.51l1.89-.1,0.51,0,1.89,0.1h0.51l1.89-.1h0.51l0.8,0,0.51,0,0.54,0.06,0.35,0,0.19,0.1,0.13,0.19,0,0.35,0,0.29v0.48l-0.06,1v0.51Z" transform="translate(-167 -194)"/><path class="cls-2" d="M367.52,245.11l-0.42.13h-2.24l-1.76,0h-0.51l-1.44.06h-0.42l-0.29-.13-0.26-.26-1-1.44-0.29-.38-1-1.38-0.29-.38-0.9-1.47-0.29-.38-1-1.38-0.22-.26-0.19-.1-0.38,0-1-.06-0.42,0-0.26.19-0.1.42L352.7,240l0,0.51,0.13,1.79,0,0.51,0,0.77v0.51l0,0.51-0.06.38-0.16.16-0.35.1h-0.51l-1.54-.1-1.47.1h-0.51l-1.47-.1-0.38-.06-0.19-.13-0.06-.32,0-.45,0-.48,0.06-.83,0-.51,0.13-1.73v-0.51l-0.1-1.73,0-.51,0-1.7V235.7l0.1-1.73v-0.51l-0.1-1.73v-0.51l0.1-1.73V229l0.06-1.7v-0.51l0-1.73v-0.51l-0.06-1.06,0-.48,0-.19,0.1-.42,0.19-.26L347,222l0.26,0,0.48,0,1.44,0.06,3.81,0.13,2.18-.13h0.51l2.11,0.13H359l0.54,0,0.48,0.1,0.67,0.19,0.48,0.16,0.48,0.19,0.51,0.19,0.48,0.22,0.42,0.26,0.61,0.42,0.35,0.29,0.32,0.32,0.32,0.38,0.45,0.64,0.29,0.42,0.38,0.61L366,227l0.22,0.48,0.16,0.51,0.1,0.51,0,0.51,0.06,0.7v0.51l0,0.51-0.06.54-0.1.54-0.13.51-0.19.48-0.22.48-0.29.48-0.29.42-0.29.38-0.29.35-0.51.51-0.35.29-0.64.35-0.38.22-0.42.22-0.42.1-0.26.1,0.13,0.26,1.15,1.63,0.29,0.38,1.15,1.57,0.32,0.38,1.15,1.6,0.32,0.38,1,1.15,0.29,0.35,0.16,0.35Zm-9.7-12.32,0.7-.13,0.42-.16,0.38-.22,0.32-.38,0.22-.48,0.13-.51,0-.51,0-.54-0.06-.54-0.13-.48-0.22-.48L359.3,228l-0.35-.29-0.45-.19-0.7-.16-0.51-.06-1.6,0h-0.51l-1.63.1-0.38,0-0.22.1-0.19.19,0,0.35,0,0.74,0.06,0.51,0.06,0.54,0,0.54-0.06,1.76,0,0.35,0.06,0.19,0.22,0.1,0.38,0.06,1.66,0.13h0.51Z" transform="translate(-167 -194)"/><path class="cls-2" d="M394.53,233.43l0,0.51-0.06.74-0.06.48-0.19,1-0.06.74-0.06.48-0.1.51-0.13.48-0.32.67-0.22.45-0.87,1.44-0.29.42-0.32.42-0.32.35-0.51.54-0.35.32-0.42.32-0.38.29-0.58.38-0.42.26-0.48.26-0.45.19-0.64.26-0.48.13-1,.32-0.54.16-0.51.13-0.54.13-0.54.1-0.54,0h-1.73l-1.09-.06-1.06-.13-0.45-.1-0.48-.13-1.73-.58-0.51-.16-0.54-.22-1-.45L374,243.8l-0.48-.29-0.42-.32-0.42-.35-0.38-.42-0.35-.42-0.86-.86-0.32-.38-0.32-.42-0.26-.42-0.26-.64-0.48-1.44-0.19-.67-0.1-.48-0.1-.51-0.1-.48-0.1-.7,0-.48,0-.54v-0.54l0-.54,0-.58,0.06-.54,0.1-.54,0.13-.54,0.16-.54,0.16-.48,0.19-.51,0.22-.74,0.22-.51,0.13-.29,0.26-.48,0.45-.7,0.32-.45,0.16-.26,0.38-.38,0.54-.45,0.42-.32,0.42-.29,1-.64,0.42-.26,0.45-.26,0.45-.22,0.67-.29,0.45-.16,0.48-.16,0.48-.13,1.22-.22,0.48-.1,1.6-.19,1-.06,1,0.06,0.77,0,0.54,0.06,0.54,0.1,0.54,0.13,0.54,0.1,0.51,0.13,0.48,0.13,0.48,0.16,0.67,0.26,0.45,0.19,1.05,0.61,0.42,0.29,0.42,0.32,0.54,0.51,0.35,0.32,0.35,0.35,0.29,0.38,0.45,0.61,0.26,0.42,0.22,0.42,0.26,0.42,0.35,0.64,0.26,0.42,0.22,0.48,0.16,0.45,0.16,0.74,0.19,1,0.06,0.54,0.1,0.54Zm-7.81,4.16,0.29-.45,0.32-.7,0.19-.48,0.16-.74,0.06-.48,0.06-.77v-0.54l0-.54,0-.51-0.19-1-0.13-.45-0.35-.7-0.26-.42-0.45-.58-0.32-.35-0.48-.51-0.35-.29-0.83-.48-0.45-.19-0.51-.16-0.51-.1-1-.06-0.48,0-0.7,0-0.48.1-0.83.22-0.51.19-0.74.38-0.45.29-0.51.45-0.35.38-0.35.48-0.26.42-0.1.19-0.29.67-0.16.48-0.1.22-0.1.45-0.06.45,0,0.45,0,0.48V234l0,0.51,0.1,0.51,0,0.29,0.13,0.48,0.06,0.22,0.16,0.45,0.13,0.26,0.26,0.45,0.16,0.26,0.35,0.45,0.19,0.22,0.38,0.38L378,239l0.45,0.29,0.51,0.26,0.48,0.19L380.1,240l0.48,0.1,0.8,0.1,0.54,0,0.8-.06,0.51-.06,0.7-.16,0.45-.19,0.7-.45,0.38-.29,0.51-.51,0.32-.35Z" transform="translate(-167 -194)"/><path class="cls-2" d="M419.45,227.16l0,0.51v4.74l0.1,1.86v0.51l0.06,4.22v0.54l0,0.26,0,0.54-0.1,1.54,0,1.86,0,0.45-0.13.38-0.26.35-0.32.22-0.29.1-0.45,0-1.63.06-0.51,0-0.8,0h-0.51l-0.42-.1-0.38-.16-0.38-.29-0.29-.42-0.48-.93-0.29-.42L411,241.53l-0.32-.38-1.25-1.54-0.29-.42-1.12-1.66-0.29-.38-1.25-1.54-0.32-.38L405,233.65l-0.29-.26-0.22.1-0.1.38-0.06,1.6V236l0,1.6v0.51l0,1.79v0.51l-0.1,1.79,0,0.51,0.19,1.28,0,0.51-0.1.42-0.22.22-0.22.06-0.38.06-0.26,0-0.54,0-1.47,0h-0.51l-1.31.06H399l-0.48,0-0.35-.06-0.26-.16-0.13-.22-0.06-.32,0-.22v-0.48l0.06-1.06,0-.51-0.1-1.7v-0.51l0.06-3.9,0-.51,0.1-1.7,0-.51v-2.21l-0.13-1.7V229l0.13-1.7,0-.51-0.13-1.73,0-.51v-0.74l0-.48,0.06-.48,0.06-.35,0.1-.22,0.19-.1,0.35-.06,1-.06,1,0.06h2.4l0.38,0,0.16,0.13,0.19,0.29,1.34,1.44,0.32,0.38,1.18,1.54,0.32,0.38,1.18,1.57,0.32,0.38,1.15,1.6,0.29,0.38,1.22,1.54,0.32,0.38,1.15,1.6,0.26,0.22,0.26,0,0.22-.16v-0.35l-0.22-1.34,0-.51,0.1-1.38v-0.51l-0.13-2v-0.51l0.13-2,0-.51-0.1-1.18v-0.8l0.1-.42,0.13-.26,0.22-.13,0.38-.06H414l0.54,0,1.44,0.1h0.51l1.09-.06,0.48,0,0.74,0,0.35,0.06,0.22,0.1,0.19,0.22,0.06,0.45,0,0.29,0,0.54-0.06,1-0.06.51Z" transform="translate(-167 -194)"/><path class="cls-2" d="M442.81,224.66l0,0.48,0,1,0,0.51,0,0.26-0.06.38-0.1.22-0.19.16-0.38.06H441.5l-1-.1-0.51,0-1.47.1H438l-0.8-.06h-0.48l-0.22,0-0.32.1-0.13.19,0,0.42-0.13,1.89v0.51l0.13,1.92,0,0.51-0.13,1.92,0,0.51,0.06,1.89v2.94l-0.06,1.89,0,0.48,0.16,1.44,0,0.51-0.1.38-0.16.16-0.42.06-0.61,0-0.8-.1-0.54,0-1.44.1h-0.51l-1.44-.1-0.38,0-0.19-.1-0.06-.35v-0.54l0.1-1.34,0-.51v-2.4l0-1.92v-0.51l0-1.89v-0.51l-0.13-1.92,0-.51v-2.43l-0.06-1.89V227.9l-0.1-.26-0.32-.06h-0.48l-1,.06h-0.58l-0.86-.06-0.54,0-0.54,0-0.74,0h-0.48l-0.26,0-0.35-.06-0.19-.13-0.13-.19-0.06-.32v-0.22l0-.51,0.06-1V224.7l-0.1-1.22,0-.51,0.1-.42,0.13-.22,0.19-.1,0.32-.06h0.74l1.18,0.1h0.51l1.86-.13h0.51l1.89,0.16h0.51l2.37-.16,1.86,0h0.51l2.4,0h2.37l1.06-.06,0.54,0,0.26,0,0.38,0.06,0.22,0.13,0.16,0.22,0.06,0.38v0.22l0,0.48Z" transform="translate(-167 -194)"/><rect class="cls-1" x="457.84" y="273.53" width="94.87" height="94.87" rx="15.84" ry="15.84" transform="translate(659.24 -378.31) rotate(90)"/><path class="cls-2" d="M518.06,321.42l0,0.54,0,0.77-0.1.51-0.22.74-0.16.51-0.19.48-0.19.51-0.19.54-0.19.48-0.35.7-0.26.42-0.45.51-0.32.35-0.54.51-0.7.7-0.42.35-0.61.48-0.42.26-0.64.35-0.42.19-0.7.26-0.48.16-0.51.13-0.51.1-2,.29-0.48,0-0.7.06h-0.51l-1,0-0.83-.06H503.4l-1,.06-0.8,0-0.54,0-0.48,0h-2.24l-0.48,0-1.38-.13-0.26-.13-0.16-.16-0.06-.35,0-.51,0-.26,0.06-1v-0.45l0-.74v-0.48l0-.51v-0.51l0-1.7v-0.51l-0.06-1.7,0-.48,0-.7,0.06-.48,0-.54v-0.51l-0.06-.83,0-.54v-0.29l0-.54,0.13-1.7v-0.51l0-1.7V313.9l-0.1-1.7V311l0-.51,0.1-.48,0.06-.35,0.13-.19,0.35-.1,0.54-.06,0.48-.06,0.51,0,2.82,0h0.51l1.54,0.1,0.26,0h0.58l1.34-.06,0.48,0h0.51l0.8,0.06,1,0.06,0.51,0.06,0.83,0.13,0.51,0.1,0.48,0.13,1.15,0.42,0.48,0.22,0.48,0.26,0.45,0.26,1.06,0.74,0.42,0.35,0.38,0.32,0.7,0.67,0.32,0.32,0.29,0.35,0.22,0.42,0.35,0.7,0.19,0.48,0.16,0.51,0.19,0.51,0.16,0.51,0.13,0.51,0.13,0.7,0.1,0.51,0.1,0.54L518,319.6l0,0.77,0,0.51Zm-7.29,2.75,0.22-.48,0.19-.54,0.13-.48,0.13-.7,0-.45,0-.74v-1l0-.51-0.1-.74-0.13-.48-0.06-.19-0.26-.48-0.48-.67-0.16-.16-0.32-.35-0.35-.35-0.38-.29-0.7-.42-0.45-.19-0.45-.1-0.51-.1-0.8,0-0.54,0H505l-0.7,0-0.48,0-0.7.1-0.35.1-0.16.16-0.1.38,0,0.29,0,0.48,0.06,1,0,0.51,0.06,0.7,0.06,0.51,0,0.51v0.51l0,0.7v1.54l0,0.54,0,0.51-0.06.7v0.45l0,0.74,0,0.48,0.1,0.77,0.13,0.35,0.19,0.16,0.38,0,3-.19,0.74,0,0.51-.1,0.54-.16,0.51-.19,0.48-.22,0.42-.29,0.58-.51,0.32-.38Z" transform="translate(-167 -194)"/><rect class="cls-1" x="336.56" y="273.53" width="94.87" height="94.87" rx="15.84" ry="15.84" transform="translate(537.96 -257.04) rotate(90)"/><path class="cls-2" d="M379.6,326.73l0,0.16L380,327l0.45,0,1.22,0h2.59l1.63,0h0.51l3.74-.06,0.51,0,1.06-.1h0.54l0.42,0.1,0.19,0.29,0.06,0.45,0,0.48,0,0.51v1.31l0.06,0.8,0,0.51,0,0.45-0.06.32-0.13.19-0.19.1-1,.16-0.45,0-0.7,0-0.48,0-2.34-.13h-1.79l-2.82.16h-4.64l-2.34,0-1.79-.06-0.38,0-0.22-.13-0.06-.19,0-.35,0.06-1.92v-0.51l-0.1-2,0-.51,0.1-1,0.19-1,0.1-.51,0.16-.54,0.16-.51,0.1-.26,0.22-.51,0.26-.42,0.54-.58,0.35-.32,0.58-.45,0.38-.26,0.64-.42,0.42-.22,0.67-.32,0.48-.16,0.8-.26,0.54-.13,0.54-.1,0.51-.06,1.63-.1,0.29,0,0.58,0,0.8,0,0.58-.13,0.26-.13,0.48-.29,0.22-.22,0.29-.42,0.19-.67v-0.7l-0.06-.26-0.16-.51-0.13-.22-0.32-.38-0.42-.19-0.7-.19-0.45-.06-0.48,0h-0.48l-0.45,0-0.45.1-0.67.22-0.42.22-0.19.13-0.32.35-0.16.19-0.22.48-0.16.45-0.29.19-0.48.13h-0.29l-0.54,0-1.34-.06H376l-0.54,0-0.83-.1-0.42-.06-0.22-.13-0.1-.16v-0.54l0.06-.48,0.06-.29,0.1-.51,0.06-.22,0.16-.48,0.32-.61,0.26-.45,0.29-.42,0.35-.42,0.38-.35,0.38-.32,0.61-.42,0.45-.26,1-.51,0.54-.22,0.51-.16,0.7-.16,0.51-.1,0.48-.1,0.45-.06,0.7,0,0.51,0h1.06l0.74,0h0.51l0.48,0,0.48,0.1,0.67,0.16,0.48,0.16,1,0.32,0.48,0.16,0.48,0.19,0.67,0.32,0.45,0.26,0.42,0.35,0.42,0.42,0.35,0.42,0.32,0.42,0.42,0.58,0.22,0.45,0.22,0.48,0.16,0.48,0.16,0.45,0.1,0.48,0.1,0.77v0.48l0,0.7-0.06.45-0.16.74-0.13.48-0.19.54-0.22.48-0.35.61-0.29.42-0.42.54-0.35.35-0.51.48-0.42.26-0.67.35-0.48.19-0.54.16-0.51.16-0.54.1-0.51.1-0.74.06-0.51.06-0.54.1-0.51.1-0.77.06-0.54,0H382.9l-0.58,0h-0.26l-0.54.1-0.26.1-0.48.22-0.19.16-0.35.35-0.26.38-0.19.45-0.06.26-0.1.42Z" transform="translate(-167 -194)"/><rect class="cls-1" x="215.29" y="273.53" width="94.87" height="94.87" rx="15.84" ry="15.84" transform="translate(416.69 -135.76) rotate(90)"/><path class="cls-2" d="M268.79,330.05v0.54l-0.1.42-0.22.19-0.22.16-0.22.1h-0.93l-1.38-.06H265.2l-4.32-.06h-0.51l-3.23.13-1.06-.06-0.35-.1-0.13-.1-0.06-.19,0-.32V330l0.06-1,0-.51-0.13-1V327l0-.22,0.13-.35,0.35-.06,1.28,0.1h0.51l0.74,0,0.38-.06,0.19-.1,0.1-.22v-2.27l0-.51,0.13-1.92V320.9l0-.7-0.06-.48,0-.8,0-.51,0.06-.83,0.06-1.09v-0.35l-0.1-.19-0.19-.13-0.29,0-1.15.38-0.48.13-0.48.06h-0.42l-0.29-.13-0.13-.22-0.1-.32,0-.26v-0.51l0.06-.8v-0.54l-0.06-1V312l0.06-.42,0.13-.19,0.16-.13,0.32-.16,0.29-.1,0.48-.19,0.93-.29,0.45-.16,1.7-.64,0.48-.16,1.7-.54,0.48-.19,0.74-.35,0.54-.22,0.48-.13,0.38,0,0.32,0.1,0.16,0.22,0.1,0.38,0.06,0.38,0,0.38-0.06,1.25,0,0.51v5l-0.1,2v0.51l0.13,2,0,0.51-0.13,2,0,0.51,0.13,2,0,0.32,0.1,0.19,0.19,0.13,0.38,0,2.3,0,0.19,0.06,0.13,0.29,0,0.22,0,0.48-0.06,1V329Z" transform="translate(-167 -194)"/><path class="cls-2" d="M271.89,497v0.51l0,0.54-0.1.51-0.16.7-0.16.48-0.1.19-0.38.67-0.35.45-0.16.19-0.35.38-0.32.32-0.35.29-0.77.58-0.42.22-0.64.26-0.45.16-0.67.22-0.45.13-0.7.19-0.51.13-0.54.1-0.54.06-0.7,0h-0.51l-1.82-.06-1.09-.06-0.54-.06-0.48-.1-0.51-.1-0.74-.19-0.48-.16-0.48-.19-0.48-.22-0.67-.38-0.42-.26-0.9-.74-0.51-.51-0.32-.38-0.29-.48-0.26-.45-0.26-.67-0.16-.45-0.26-.64-0.1-.45-0.16-.74,0.06-.35,0.29-.22,0.51-.1,1.09-.06,1.09,0.06h0.51l1.47-.13h0.77l0.45,0.1,0.26,0.22,0.19,0.42,0.06,0.29,0.26,0.48,0.19,0.19,0.38,0.35,0.19,0.13,0.48,0.22,0.22,0.13,0.54,0.16,0.54,0.13,0.54,0.06h0.51l0.8-.1,0.51-.16,0.29-.1,0.45-.29,0.19-.16,0.32-.35,0.16-.19,0.16-.42,0.06-.26v-0.48l-0.06-.26-0.16-.48-0.13-.19-0.32-.38-0.58-.38-0.19-.1-0.42-.19-0.51-.1-0.54-.06-0.54,0h-0.8l-1,.06-0.7,0h-0.7l-0.38-.13-0.22-.26-0.1-.38-0.06-.48,0-.45,0-.45v-0.48l0-.7,0-.58,0.1-.42,0.13-.22,0.19-.1,1.09-.1,0.51,0,1,0.1,0.48,0,0.22,0,0.48,0,0.7-.1,0.54-.13,0.26-.1,0.51-.22,0.22-.16,0.35-.35,0.16-.19,0.19-.48,0-.32,0-.32-0.22-.48-0.16-.26-0.51-.51-0.42-.19-0.48-.1-0.45-.06-0.74,0-0.48,0-0.8.06-0.48.1-0.26.1-0.45.19-0.22.16-0.38.32-0.13.19-0.22.42-0.16.38-0.29.19-0.45.1h-0.8l-1.34-.06-0.48,0-1,.06-0.48,0-0.7,0-0.38-.1-0.16-.1-0.1-.19v-0.35l0.1-.7,0.1-.48,0.32-.9,0.22-.64,0.22-.45,0.29-.48,0.35-.42,0.42-.38,0.42-.35,0.48-.29,0.48-.32,0.48-.29,0.48-.26,0.51-.22,0.54-.19,0.54-.13,0.54-.1,0.54-.06,1.09-.19,0.58-.06,0.54,0,0.51,0,0.74,0,1.5,0.19,0.74,0.16,0.48,0.1,0.51,0.16,0.48,0.16,0.74,0.26,0.45,0.19,0.45,0.22,0.45,0.29,0.48,0.35,0.42,0.35,0.42,0.42,0.32,0.35,0.13,0.19,0.29,0.42,0.22,0.51,0.19,0.48,0.16,0.45,0.19,0.67,0.1,0.48,0,0.54V488l0,0.22-0.1.48-0.06.19-0.16.42-0.45.83-0.38.61-0.29.35-0.54.51-0.22.26-0.1.26,0.13,0.26,0.74,0.51,0.38,0.32,0.32,0.32,0.32,0.35,0.29,0.38,0.35,0.7,0.16,0.51,0.1,0.54,0,0.51Z" transform="translate(-167 -194)"/><rect class="cls-1" x="215.29" y="445.13" width="94.87" height="94.87" rx="15.84" ry="15.84" transform="translate(588.29 35.84) rotate(90)"/><path class="cls-2" d="M393.53,498.46v0.8l-0.13.42-0.26.22-0.42.1-1,.06-0.22.1-0.32.26-0.19.38,0,0.45,0.1,1,0,0.51,0,0.48-0.1.45-0.29.32-0.45.13h-0.74l-1.86-.13h-0.8l-0.51,0-0.74-.06-0.45-.06-0.26-.19-0.13-.42,0-.48v-0.51l0.06-1.25,0-.48-0.22-.38-0.29-.16-0.42,0-2.11.13h-0.51l-4.8-.1L376,500l-1.22.1h-0.48l-0.48,0-0.38-.13-0.19-.29-0.06-.38-0.32-1.82-0.06-.51-0.13-1.89,0-.35,0.13-.16,0.22-.26,1.06-1.38,0.32-.38,1.18-1.31,0.35-.35,1.22-1.25,0.35-.35,1.18-1.28,0.32-.38,1.09-1.38,0.35-.35,1.22-1.25,0.35-.38,0.51-.61,0.32-.42,0.29-.35,0.35-.32,1.22-1.25,0.26-.26,0.16-.13,0.32,0,2.18,0.06,1.73-.1h0.48l0.48,0,0.35,0.06,0.22,0.1,0.1,0.19,0,0.42,0.1,2v0.51l-0.06,2v0.51l0,2v0.51l0,2v0.51l-0.1,2,0,0.42,0.26,0.35,0.42,0.29,0.9,0.06h0.19l0.38,0.1,0.22,0.22,0.1,0.42,0,0.29,0,0.51-0.06.74,0,0.51ZM382,494.91h0.51l1.31,0,0.45-.06,0.29-.19,0.19-.35,0-.45,0.13-1.7v-2.21l-0.06-.38-0.19-.16-0.22,0-0.29.26L383,490.78l-0.35.38-1,1.25-0.35.38-1.12,1.09-0.22.29v0.29l0.26,0.29,0.42,0.1Z" transform="translate(-167 -194)"/><rect class="cls-1" x="336.56" y="445.13" width="94.87" height="94.87" rx="15.84" ry="15.84" transform="translate(709.56 -85.44) rotate(90)"/><path class="cls-2" d="M514.17,496.38v0.54l0,0.54,0,0.51-0.13.7-0.13.45-0.32.64-0.26.45-0.29.45-0.7.83-0.38.35-1,.74-0.48.29-0.51.29-0.51.22-0.48.22-0.64.22-0.48.16-0.54.16-0.51.1-0.7,0-0.45,0-0.7,0h-0.45l-0.7-.06-0.51,0-0.54-.06-1-.06-0.51-.06-0.77-.16-0.48-.13-0.48-.19-0.45-.22-0.67-.38-0.42-.29-0.51-.42-0.35-.32-0.45-.54-0.32-.38-0.29-.48-0.26-.45-0.26-.64-0.13-.45-0.16-.7-0.06-.51,0-.54,0.06-.48,0.22-.22,0.38-.06,0.74-.06,1.47,0.1h0.51l1.44-.1h0.77l0.42,0.1,0.22,0.19,0.16,0.42,0.19,0.54,0.32,0.48,0.35,0.35,0.42,0.29,0.48,0.16,0.45,0.13,0.7,0h0.45l0.7,0,0.48-.13,0.51-.22,0.51-.29,0.42-.45,0.22-.51,0.1-.51,0-.58-0.13-.51-0.06-.19-0.29-.42-0.35-.35-0.42-.32-0.51-.22-0.51-.13-0.74-.1-0.48,0-1,.06-0.7.06-2.14-.13H500l-3.81.06-0.42-.1-0.22-.26,0-.42,0-1.92v-0.51l0-1.92v-0.51l-0.1-1.92V486l0.1-1.92,0-.54-0.1-1.09,0-.51,0-.29,0.1-.48,0.29-.26,0.38-.06h0.67L498,481h0.51l1.86-.1,0.51,0,1.86,0,2.88,0.19,1.86-.06h2.82l1-.06,1,0.06L512.6,481l0.22,0.1,0.16,0.19,0.06,0.38,0,0.22,0,0.48-0.06,1v1l0,0.51-0.1.54-0.06.48-0.22.26-0.42.06-0.26,0h-0.51l-1.34,0h-0.51l-2.62,0h-2.11l-1.5-.1h-0.54l-0.54,0-0.48.13-0.26.26-0.06.38,0,1,0.06,0.45,0.19,0.38,0.38,0.22,0.45,0.06,1.79-.1h0.54l0.8,0.06,1,0.06,0.48,0.06,0.8,0.1,1,0.19,0.48,0.16,0.67,0.29,0.48,0.26,0.48,0.29,0.42,0.29,0.9,0.74,0.45,0.54,0.29,0.38,0.22,0.48,0.19,0.51,0.26,0.7,0.1,0.51,0.16,0.74,0.06,0.51Z" transform="translate(-167 -194)"/><rect class="cls-1" x="457.84" y="445.13" width="94.87" height="94.87" rx="15.84" ry="15.84" transform="translate(830.84 -206.71) rotate(90)"/><rect class="cls-1" x="215.29" y="565.44" width="94.87" height="94.87" rx="15.84" ry="15.84" transform="translate(708.6 156.15) rotate(90)"/><path class="cls-2" d="M272.08,616.41v0.48l-0.06.8-0.1.51-0.16.54-0.16.51-0.22.74-0.22.42-0.32.64-0.32.35-0.54.54-0.38.29-0.58.42-0.42.26-0.45.29-0.48.22-0.74.35-0.48.16-0.7.22-0.45.13-0.74.13-0.48.1-0.7,0-0.51,0-0.7,0h-0.51l-1.06-.06-0.8-.1-1.09-.19-0.54-.13-1.22-.38-0.51-.22-0.48-.22-0.74-.35-0.42-.29-0.58-.51-0.35-.38-0.35-.42-0.35-.45-0.32-.45-0.29-.45-0.32-.74-0.19-.45-0.13-.74-0.06-.48-0.06-.7v-0.54l0.06-.8V615l0.06-.74-0.1-1.54-0.06-1.09,0-.51,0-.77V609l0-.51,0.16-.8,0.13-.51,0.32-1,0.22-.7,0.26-.48,0.29-.48,0.32-.42,0.93-.93,0.42-.35,0.48-.29,0.48-.26,0.48-.22,0.7-.29,0.51-.19,1-.32,0.74-.16,0.48-.1,0.74-.1,0.45,0,0.74-.06,1,0.06,2.11,0.29,0.51,0.06,0.7,0.16,0.51,0.13,0.54,0.16,0.51,0.19,0.48,0.22,0.45,0.26,0.7,0.35,0.42,0.26,0.35,0.29,0.29,0.38,0.29,0.42,0.26,0.48,0.22,0.54,0.19,0.51,0.1,0.22,0.19,0.51,0.06,0.22,0.13,0.48,0,0.22-0.06.38-0.32.22-0.45.1-0.54.06-0.51,0h-1.6l-0.8,0-0.51,0-0.83-.1-0.38-.06-0.19-.16-0.16-.32-0.32-.35-0.19-.16-0.67-.38-0.51-.19-0.26-.06-0.48-.13-0.74-.06-0.45,0-0.74.1-0.48.13-0.51.19-0.22.1-0.45.29-0.16.13-0.29.35-0.22.42-0.19.48,0,0.29-0.06.51,0,0.48v0.38l0.16,0.32,0.35,0.22,0.22,0.06,0.26-.1,0.42-.22,0.48-.19,0.8-.26,0.48-.13,0.74-.16,0.48,0,0.7-.06,0.51,0,0.83,0,0.51,0.1,1.92,0.42,0.48,0.16,0.7,0.22,0.45,0.22,0.61,0.45,0.42,0.32,0.51,0.51,0.35,0.38,0.42,0.64,0.26,0.42,0.35,0.7,0.16,0.48,0.26,1.28Zm-7.87,2.46,0.42-.29,0.35-.29,0.29-.38,0.16-.26,0.16-.48,0.06-.29,0-.54,0-.26-0.19-.51-0.16-.19-0.35-.42-0.26-.16-0.45-.35-0.54-.26-0.51-.16-0.19,0-0.45-.1h-0.7L261,614l-0.45.1-0.22.1-0.38.19-0.22.1-0.42.32-0.26.16-0.38.42-0.13.19-0.22.38-0.1.42,0,0.51,0,0.26,0.22,0.48,0.35,0.42,0.51,0.42,0.58,0.38,0.48,0.22,0.61,0.19,0.51,0.13h0.64l0.45,0,0.77-.19L264,619Z" transform="translate(-167 -194)"/><rect class="cls-1" x="335.56" y="565.44" width="94.87" height="94.87" rx="15.84" ry="15.84" transform="translate(828.87 35.87) rotate(90)"/><path class="cls-2" d="M391.51,603.38l0,0.51-0.16.51-0.8,1.5-0.19.45-0.61,1.6-0.22.45-0.83,1.5-0.22.45-0.74,1.54-0.19.45-0.7,1.57-0.22.45-0.8,1.5-0.26.45-0.77,1.47-0.22.45-0.67,1.6-0.19.45-0.74,1.54-0.22.45-0.83,1.47-0.22.35-0.19.16-0.38.1h-0.26l-0.51,0-2.72-.06-1.44.1H375.7l-0.19,0-0.38-.13L374.9,624l0-.29,0.16-.35,0.83-1.57,0.26-.45,0.77-1.63,0.22-.45,0.67-1.66,0.22-.45,0.83-1.6,0.22-.45,0.77-1.63,0.22-.45,1.79-3.65,0.26-.45,0.8-1.6,0.1-.42-0.19-.26-0.42-.06-1.73-.06h-0.51l-1.73.1h-0.51l-1.76,0h-0.48l-1,.06H374.2l-0.29,0-0.45-.13-0.29-.26-0.1-.38,0-.45,0-.48,0.13-.83,0-.51-0.06-1v-0.48l0-.26,0.1-.45,0.19-.26,0.38-.13h0.67l1.31,0.16,0.51,0,2.46-.06,2-.1h0.51l2,0.1h0.51l2,0h0.51l2,0L390,601h0.58l0.48,0.13,0.19,0.26,0.1,0.42,0.1,0.77Z" transform="translate(-167 -194)"/><rect class="cls-1" x="455.84" y="565.44" width="94.87" height="94.87" rx="15.84" ry="15.84" transform="translate(949.15 -84.4) rotate(90)"/><path class="cls-2" d="M512.89,616.73l0,0.54v0.8l0,0.48-0.1.7-0.13.45-0.26.67-0.22.45-0.45.64-0.29.38-0.54.54-0.35.29-0.64.45-0.45.22-0.77.29-0.51.16-0.54.16-0.54.13-0.74.16-0.48.1-1.18.16-0.77,0-0.48,0-0.74,0h-0.45l-0.74,0-0.48,0-0.74,0-1.6-.19-0.83-.16-0.51-.13-0.7-.22-0.48-.19-0.64-.32L495.1,623l-0.61-.45-0.38-.32-0.45-.54-0.32-.35-0.42-.54-0.29-.42-0.32-.7-0.16-.45-0.1-.7,0-.48v-0.8l0.06-.51,0.13-.74,0.16-.48,0.35-.67,0.22-.42,0.26-.35,0.29-.35,0.35-.35,0.35-.29,0.42-.42,0-.29-0.1-.26-0.26-.32-0.35-.45-0.32-.48-0.22-.48-0.22-.51L493,609.4l-0.13-.54-0.1-.54,0-.48,0.06-.7,0.06-.48,0.16-.54,0.19-.51,0.22-.51,0.29-.48,0.32-.42,0.32-.38,0.45-.54,0.35-.35,0.42-.35,0.45-.29,0.26-.13,0.54-.22,0.26-.13,0.51-.19,0.48-.13,0.74-.22,0.48-.13,0.48-.1,0.48,0,0.8-.06h1.44l0.8,0.06,1,0.06,1.09,0.19,0.58,0.13,1.57,0.48L508,602l0.67,0.29,0.45,0.22,0.61,0.38,0.45,0.29,0.42,0.35,0.35,0.38,0.45,0.58,0.29,0.42,0.26,0.48,0.19,0.51,0.16,0.54,0.06,0.51,0.06,0.74v0.48l0,0.48-0.1.48-0.22.7-0.22.45-0.32.48-0.35.42-0.38.35-0.29.32-0.1.26,0.1,0.26,0.29,0.29,0.38,0.35,0.35,0.38,0.58,0.86,0.26,0.45,0.26,0.67,0.13,0.51Zm-8.25,2.33,0.48-.19,0.19-.16,0.42-.35,0.16-.22,0.26-.51,0.06-.26v-0.54l0-.22-0.22-.45-0.19-.22-0.42-.35-0.22-.13-0.48-.26L504,615l-0.48-.13-0.74-.1-0.48,0-0.74.06-0.48.06-0.74.16-0.48.19-0.22.16-0.38.35-0.19.19-0.22.45-0.13.48,0,0.45,0.06,0.19,0.19,0.48,0.13,0.22,0.38,0.42,0.42,0.32,0.45,0.22,0.54,0.16,0.54,0.13,0.8,0h0.51l0.7,0,0.48-.1Zm-4.86-12.22-0.19.22-0.26.42-0.16.45v0.45l0,0.22,0.22,0.42,0.16,0.19,0.35,0.35,0.22,0.13L500.6,610l0.22,0.13,0.51,0.19,0.77,0.13,0.51,0,0.48,0,0.48-.06,0.7-.26,0.38-.19,0.19-.13,0.29-.32,0.16-.16,0.19-.42,0.13-.48,0-.45-0.06-.22-0.16-.42-0.22-.38-0.48-.48-0.42-.22-0.48-.16-0.48-.13-0.7,0h-0.48l-0.48,0-0.48.13-0.67.22-0.38.22Z" transform="translate(-167 -194)"/><rect class="cls-1" x="215.29" y="685.75" width="94.87" height="94.87" rx="15.84" ry="15.84" transform="translate(828.91 276.46) rotate(90)"/><path class="cls-2" d="M272.07,732l-0.13,2.08,0,0.51v2.08l0,0.48,0,0.74-0.1.45-0.13.74-0.16.45-0.26.64-0.22.45-0.38.61-0.32.42-0.51.61-0.38.35L269,743l-0.42.29-0.48.29-0.51.26-0.7.32-0.48.16-0.48.13-0.48.1-1,.16-0.51.1-1.09.19-0.8.1h-0.54L261,745l-0.54-.06-1.38-.22-0.51-.1-0.8-.19-0.51-.13-0.54-.16-0.51-.16-0.48-.19-0.48-.22-0.48-.26-0.42-.29-0.51-.42-0.35-.38-0.16-.22-0.29-.45-0.35-.7-0.19-.51-0.13-.45-0.19-1V738.7l0-.42,0.1-.29,0.16-.13,0.32-.06,0.74,0,0.48,0,1.5,0.1,1.22-.06h0.48l0.48,0,0.42,0.1,0.26,0.22,0.16,0.35,0.13,0.22,0.29,0.35,0.22,0.19,0.42,0.26,0.51,0.16,0.54,0.13,0.48,0.06,0.93,0.06,0.29,0,0.51-.06,0.29,0,0.51-.19,0.48-.22,0.45-.22,0.38-.35,0.35-.45,0.22-.48,0.16-.45v-0.19l0-.48-0.06-.22-0.13-.51-0.22-.42-0.26-.16-0.1,0-0.26.16-0.48.26-0.51.19-0.7.22-0.48.1-0.74.06-0.48,0-2,.06-0.51,0-0.74,0-0.51-.13-0.54-.16-0.51-.16-0.86-.42-0.45-.26-0.7-.42-0.38-.32-0.54-.51-0.29-.38-0.58-.9-0.22-.48-0.32-1-0.13-.8-0.1-.51,0-.7v-0.48l0.1-1,0.1-.48,0.13-.48,0.16-.45,0.26-.67,0.22-.42,0.35-.61,0.29-.38,0.45-.51,0.35-.35,0.54-.45,0.45-.32,0.48-.29,0.48-.22,0.74-.32,0.45-.16,0.7-.16,1.18-.26,1-.13,0.54,0,0.8-.06h0.54l0.7,0.06,0.51,0,0.7,0.06,0.51,0.1,0.74,0.13,1.09,0.32,0.51,0.19,0.51,0.22,0.48,0.26,0.67,0.42,0.42,0.29,0.58,0.42,0.35,0.32,0.48,0.54,0.32,0.35,0.29,0.42,0.26,0.42,0.45,0.83,0.16,0.48,0.1,0.51,0.1,0.54,0.06,0.8,0,0.54V732Zm-6.69-2.53,0-.54,0-.29-0.19-.48-0.29-.38-0.29-.32-0.19-.13-0.35-.22-0.42-.16-0.22-.1-0.48-.1-0.83-.13-0.48,0-0.93.06-0.29,0-0.51.13-0.22.13-0.42.26-0.35.35-0.29.38-0.13.19-0.19.77,0,0.51,0.1,0.48,0.19,0.42,0.29,0.42,0.35,0.35,0.42,0.26,0.74,0.35,0.45,0.13,0.74,0.1H262l1-.1,0.51-.13,0.51-.19,0.45-.26,0.35-.35,0.29-.42,0.13-.22,0.13-.51v-0.26Z" transform="translate(-167 -194)"/><rect class="cls-1" x="335.56" y="685.75" width="94.87" height="94.87" rx="15.84" ry="15.84" transform="translate(949.19 156.19) rotate(90)"/><path class="cls-2" d="M379.4,743.28v0.54l-0.1.42-0.22.19-0.22.16-0.22.1H377.7l-1.38-.06h-0.51l-4.32-.06H371l-3.23.13-1.06-.06-0.35-.1-0.13-.1-0.06-.19,0-.32v-0.74l0.06-1,0-.51-0.13-1v-0.48l0-.22,0.13-.35,0.35-.06,1.28,0.1h0.51l0.74,0,0.38-.06,0.19-.1,0.1-.22V737l0-.51,0.13-1.92v-0.48l0-.7-0.06-.48,0-.8,0-.51,0.06-.83,0.06-1.09v-0.35l-0.1-.19-0.19-.13-0.29,0-1.15.38-0.48.13-0.48.06h-0.42l-0.29-.13-0.13-.22-0.1-.32,0-.26v-0.51l0.06-.8V726.8l-0.06-1v-0.54l0.06-.42,0.13-.19,0.16-.13,0.32-.16,0.29-.1,0.48-.19,0.93-.29,0.45-.16,1.7-.64,0.48-.16,1.7-.54,0.48-.19,0.74-.35,0.54-.22,0.48-.13,0.38,0,0.32,0.1,0.16,0.22,0.1,0.38,0.06,0.38,0,0.38-0.06,1.25,0,0.51v5l-0.1,2V732l0.13,2,0,0.51-0.13,2,0,0.51,0.13,2,0,0.32,0.1,0.19,0.19,0.13,0.38,0,2.3,0,0.19,0.06,0.13,0.29,0,0.22,0,0.48-0.06,1v0.51Z" transform="translate(-167 -194)"/><path class="cls-2" d="M402.31,731.31l0,0.51,0,1.09v1.89l0,0.7,0,0.48,0,0.7-0.1.48-0.13.74-0.32,1-0.22.48-0.32.64-0.29.45-0.32.48-0.32.45-0.35.45-0.38.38-0.51.54-0.38.29-0.64.32-0.42.22-0.64.29-0.45.19-0.67.26-0.45.16-0.7.16-0.48.1-0.54.06-0.54,0-0.77.06-0.51,0-0.83-.06-0.51-.06-1.73-.29-0.48-.1-0.67-.19L387,744l-0.7-.32-0.48-.29-0.45-.29-0.42-.29-0.61-.45-0.35-.32-0.48-.54-0.29-.35-0.45-.61-0.22-.42-0.35-.61-0.16-.45-0.22-.74-0.1-.45-0.16-.7-0.06-.48-0.1-.54-0.06-.51,0-.83,0-.48,0-1.22v-1.31l0.06-1,0.1-.51,0.13-.83,0.13-.51,0.13-.7,0.13-.48,0.19-.67,0.16-.48,0.19-.48,0.22-.48,0.38-.7,0.32-.45,0.51-.58,0.42-.35,0.45-.35,0.42-.29,0.64-.35,0.42-.22,1.12-.48,0.86-.32,0.48-.16,0.48-.13,0.51-.06,0.83,0h0.51l1.63,0.06,0.51,0,0.77,0.13,0.51,0.06,1.25,0.29,0.54,0.16,0.51,0.19,0.48,0.19,0.45,0.22,0.74,0.42,0.42,0.29,0.35,0.35,0.35,0.42,0.51,0.64,0.29,0.45,0.45,0.7,0.22,0.45,0.19,0.48,0.19,0.45,0.22,0.74,0.16,0.48,0.13,0.54,0.1,0.51,0.1,0.7,0.06,0.48ZM388.68,738l0.32,0.42,0.35,0.38,0.42,0.26,0.19,0.13,0.51,0.16,0.58,0.1,0.54,0h0.58l0.8-.06,0.51-.13,0.48-.19,0.45-.29,0.16-.16,0.35-.42,0.29-.51,0.22-.48,0.32-1.09,0.1-.51,0-.77,0.1-1.54v-0.51l0-1,0-.48-0.06-.77-0.13-.51-0.16-.54-0.19-.48-0.35-.7-0.26-.42-0.38-.38-0.42-.32-0.45-.22-0.22-.06-0.48-.16-0.48,0-0.22,0h-0.51l-0.54.1-0.22,0-0.48.16-0.48.26-0.58.38L389,728l-0.35.48-0.29.48-0.19.58-0.13.54-0.06.54,0,0.74v0.48l0,1v0.51l0,1v0.51l0.06,0.8,0.06,0.51,0.13,0.54,0.16,0.45,0.06,0.22,0.22,0.42Z" transform="translate(-167 -194)"/><rect class="cls-1" x="455.84" y="685.75" width="94.87" height="94.87" rx="15.84" ry="15.84" transform="translate(1069.46 35.91) rotate(90)"/><path class="cls-2" d="M502.35,743.28v0.54l-0.1.42-0.22.19-0.22.16-0.22.1h-0.93l-1.38-.06h-0.51l-4.32-.06h-0.51l-3.23.13-1.06-.06-0.35-.1-0.13-.1-0.06-.19,0-.32v-0.74l0.06-1,0-.51-0.13-1v-0.48l0-.22,0.13-.35,0.35-.06,1.28,0.1h0.51l0.74,0,0.38-.06,0.19-.1,0.1-.22V737l0-.51,0.13-1.92v-0.48l0-.7-0.06-.48,0-.8,0-.51,0.06-.83,0.06-1.09v-0.35l-0.1-.19-0.19-.13-0.29,0-1.15.38-0.48.13-0.48.06h-0.42l-0.29-.13-0.13-.22-0.1-.32,0-.26v-0.51l0.06-.8V726.8l-0.06-1v-0.54l0.06-.42,0.13-.19,0.16-.13,0.32-.16,0.29-.1,0.48-.19,0.93-.29,0.45-.16,1.7-.64,0.48-.16,1.7-.54,0.48-.19,0.74-.35,0.54-.22,0.48-.13,0.38,0,0.32,0.1,0.16,0.22,0.1,0.38,0.06,0.38,0,0.38L499,724.08l0,0.51v5l-0.1,2V732l0.13,2,0,0.51-0.13,2,0,0.51,0.13,2,0,0.32,0.1,0.19,0.19,0.13,0.38,0,2.3,0,0.19,0.06,0.13,0.29,0,0.22,0,0.48-0.06,1v0.51Z" transform="translate(-167 -194)"/><path class="cls-2" d="M518.32,743.28v0.54l-0.1.42-0.22.19-0.22.16-0.22.1h-0.93l-1.38-.06h-0.51l-4.32-.06h-0.51l-3.23.13-1.06-.06-0.35-.1-0.13-.1-0.06-.19,0-.32v-0.74l0.06-1,0-.51-0.13-1v-0.48l0-.22,0.13-.35,0.35-.06,1.28,0.1h0.51l0.74,0,0.38-.06,0.19-.1,0.1-.22V737l0-.51,0.13-1.92v-0.48l0-.7-0.06-.48,0-.8,0-.51,0.06-.83,0.06-1.09v-0.35l-0.1-.19L508.5,729l-0.29,0-1.15.38-0.48.13-0.48.06h-0.42l-0.29-.13-0.13-.22-0.1-.32,0-.26v-0.51l0.06-.8V726.8l-0.06-1v-0.54l0.06-.42,0.13-.19,0.16-.13,0.32-.16,0.29-.1,0.48-.19,0.93-.29,0.45-.16,1.7-.64,0.48-.16,1.7-.54,0.48-.19,0.74-.35,0.54-.22,0.48-.13,0.38,0,0.32,0.1,0.16,0.22,0.1,0.38,0.06,0.38,0,0.38L515,724.08l0,0.51v5l-0.1,2V732l0.13,2,0,0.51-0.13,2,0,0.51,0.13,2,0,0.32,0.1,0.19,0.19,0.13,0.38,0,2.3,0,0.19,0.06,0.13,0.29,0,0.22,0,0.48-0.06,1v0.51Z" transform="translate(-167 -194)"/><line class="cls-1" x1="48.29" y1="215.19" x2="383.71" y2="215.19"/></svg>